:FULLY-SPECIFIED
:FORCE-ALL-JOINTS-BE-3DOF
:DEGREES
476
root 4.08303 16.0638 -6.51259 -0.0183704 65.6979 -14.842
lfemur -48.6449 4.90792 -13.7754
ltibia 56.4698 -0 0
lfoot -21.4117 -6.71877 -0.162301
ltoes 10.6888 -0 0
rfemur -24.2219 1.30844 11.3133
rtibia 48.7784 -0 0
rfoot 1.17646 -8.91832 1.23693
rtoes -48.6017 0 0
lowerback 3.52033 -0.497099 3.86602
upperback -0.05901 -0.445014 2.10364
thorax -1.96276 -0.24079 0.0542402
lowerneck -8.14072 -6.51259 0.501167
upperneck 2.87218 -8.78789 1.37858
head 2.37608 -4.34529 -0.114654
lclavicle -3.20139e-14 -6.59205e-15 9.39526e-31
lhumerus -44.8904 -29.7952 109.261
lradius 55.154 -0 0
lwrist 0.798479 0 0
lhand -11.6031 -5.97747 0.949811
lfingers 7.12502 -0 0
lthumb 14.3846 22.6272 0.709082
rclavicle -3.20139e-14 -6.59205e-15 9.39526e-31
rhumerus -47.8646 9.2679 -90.724
rradius 71.4074 -0 0
rwrist 19.5837 0 0
rhand -20.6678 -23.5619 0.129955
rfingers 7.12502 -0 0
rthumb 5.69073 -53.3164 0.141884
477
root 4.20568 16.0969 -6.44367 -0.232816 67.2641 -14.7059
lfemur -47.8347 3.69765 -14.111
ltibia 55.9382 -0 0
lfoot -21.5227 -6.7756 -0.165075
ltoes 11.1675 -0 0
rfemur -25.6146 1.64116 11.2444
rtibia 50.1569 -0 0
rfoot 1.75534 -8.20904 1.25483
rtoes -47.5196 0 0
lowerback 3.53665 -0.539605 3.64205
upperback -0.0706231 -0.510599 2.06129
thorax -1.98658 -0.272063 0.139261
lowerneck -8.18126 -6.70613 0.358075
upperneck 3.04853 -9.03807 1.42127
head 2.45045 -4.4675 -0.0938589
lclavicle -3.12466e-14 -6.79815e-15 9.18978e-31
lhumerus -45.1057 -29.996 109.615
lradius 55.2217 -0 0
lwrist 0.815209 0 0
lhand -10.6287 -5.69218 0.961266
lfingers 7.12502 -0 0
lthumb 15.3214 22.838 0.721308
rclavicle -3.12466e-14 -6.79815e-15 9.18978e-31
rhumerus -47.778 10.004 -91.0239
rradius 71.7345 -0 0
rwrist 20.0047 0 0
rhand -20.24 -23.4604 0.134911
rfingers 7.12502 -0 0
rthumb 6.10374 -53.2022 0.146685
478
root 4.32276 16.1297 -6.37926 -0.423328 68.7677 -14.5367
lfemur -46.9822 2.47268 -14.4686
ltibia 55.388 -0 0
lfoot -21.6301 -6.81555 -0.166788
ltoes 11.649 -0 0
rfemur -27.0529 1.9513 11.1748
rtibia 51.5976 -0 0
rfoot 2.34825 -7.47673 1.26463
rtoes -46.3415 0 0
lowerback 3.55615 -0.578282 3.40908
upperback -0.0804614 -0.571638 2.01392
thorax -2.01037 -0.300965 0.223789
lowerneck -8.22096 -6.89497 0.218667
upperneck 3.22942 -9.28243 1.46198
head 2.52644 -4.58666 -0.0740472
lclavicle -3.04527e-14 -6.98688e-15 8.92302e-31
lhumerus -45.326 -30.1887 109.964
lradius 55.2866 -0 0
lwrist 0.847948 0 0
lhand -9.64276 -5.39431 0.966472
lfingers 7.12502 -0 0
lthumb 16.2693 23.061 0.72887
rclavicle -3.04527e-14 -6.98688e-15 8.92302e-31
rhumerus -47.6912 10.756 -91.3296
rradius 72.0633 -0 0
rwrist 20.4239 0 0
rhand -19.8033 -23.3506 0.13902
rfingers 7.12502 -0 0
rthumb 6.52518 -53.0796 0.15056
479
root 4.43344 16.162 -6.31976 -0.58185 70.2036 -14.3262
lfemur -46.0864 1.23499 -14.8495
ltibia 54.8194 -0 0
lfoot -21.7335 -6.83782 -0.167333
ltoes 12.1326 -0 0
rfemur -28.5362 2.23745 11.1055
rtibia 53.1008 -0 0
rfoot 2.95468 -6.72172 1.26565
rtoes -45.0653 0 0
lowerback 3.5789 -0.612879 3.16713
upperback -0.0884319 -0.62783 1.9614
thorax -2.03409 -0.327346 0.307659
lowerneck -8.25975 -7.07858 0.0833285
upperneck 3.41477 -9.52028 1.50058
head 2.604 -4.70244 -0.0552872
lclavicle -2.96325e-14 -7.15716e-15 8.59639e-31
lhumerus -45.5509 -30.3726 110.306
lradius 55.3487 -0 0
lwrist 0.89733 0 0
lhand -8.6465 -5.08398 0.964957
lfingers 7.12502 -0 0
lthumb 17.2272 23.2963 0.731342
rclavicle -2.96325e-14 -7.15716e-15 8.59639e-31
rhumerus -47.6044 11.5233 -91.6409
rradius 72.3933 -0 0
rwrist 20.8406 0 0
rhand -19.3584 -23.2322 0.14215
rfingers 7.12502 -0 0
rthumb 6.9547 -52.9484 0.15338
480
root 4.53691 16.1937 -6.26557 -0.698563 71.5665 -14.0648
lfemur -45.146 -0.0133621 -15.2552
ltibia 54.2325 -0 0
lfoot -21.8327 -6.84162 -0.166607
ltoes 12.6176 -0 0
rfemur -30.064 2.49824 11.0376
rtibia 54.6667 -0 0
rfoot 3.57409 -5.94438 1.25723
rtoes -43.6888 0 0
lowerback 3.60499 -0.643142 2.91621
upperback -0.0944429 -0.678876 1.90359
thorax -2.05767 -0.351058 0.390704
lowerneck -8.29761 -7.25641 -0.0475563
upperneck 3.6045 -9.75097 1.53695
head 2.68308 -4.8145 -0.0376456
lclavicle -2.8786e-14 -7.30793e-15 8.21186e-31
lhumerus -45.7801 -30.547 110.641
lradius 55.4075 -0 0
lwrist 0.963987 0 0
lhand -7.64113 -4.76127 0.956254
lfingers 7.12502 -0 0
lthumb 18.1939 23.544 0.728295
rclavicle -2.8786e-14 -7.30793e-15 8.21186e-31
rhumerus -47.5177 12.3055 -91.9576
rradius 72.724 -0 0
rwrist 21.254 0 0
rhand -18.9054 -23.1053 0.144167
rfingers 7.12502 -0 0
rthumb 7.39196 -52.8085 0.155008
481
root 4.63236 16.2246 -6.21707 -0.761683 72.8511 -13.7405
lfemur -44.1598 -1.27025 -15.687
ltibia 53.6275 -0 0
lfoot -21.9272 -6.82617 -0.164505
ltoes 13.1033 -0 0
rfemur -31.6355 2.73235 10.9723
rtibia 56.2955 -0 0
rfoot 4.20594 -5.14507 1.23869
rtoes -42.2099 0 0
lowerback 3.6345 -0.668816 2.65632
upperback -0.0984044 -0.724473 1.84036
thorax -2.08108 -0.371951 0.472758
lowerneck -8.33448 -7.42794 -0.173603
upperneck 3.79852 -9.9738 1.57098
head 2.76363 -4.92251 -0.0211875
lclavicle -2.79135e-14 -7.43812e-15 7.77199e-31
lhumerus -46.0131 -30.7114 110.968
lradius 55.463 -0 0
lwrist 1.04855 0 0
lhand -6.62786 -4.42631 0.939906
lfingers 7.12502 -0 0
lthumb 19.1683 23.804 0.719302
rclavicle -2.79135e-14 -7.43812e-15 7.77199e-31
rhumerus -47.4313 13.1018 -92.2795
rradius 73.0549 -0 0
rwrist 21.6633 0 0
rhand -18.4448 -22.9695 0.14493
rfingers 7.12502 -0 0
rthumb 7.83659 -52.6597 0.155308
482
root 4.71898 16.2547 -6.17466 -0.757357 74.0521 -13.3395
lfemur -43.1265 -2.53346 -16.1464
ltibia 53.0046 -0 0
lfoot -22.0167 -6.79067 -0.160925
ltoes 13.589 -0 0
rfemur -33.2504 2.93851 10.9108
rtibia 57.9876 -0 0
rfoot 4.84964 -4.32418 1.20939
rtoes -40.6264 0 0
lowerback 3.66748 -0.689643 2.38746
upperback -0.100229 -0.764321 1.77155
thorax -2.10425 -0.389879 0.553656
lowerneck -8.37034 -7.59263 -0.294428
upperneck 3.99674 -10.1881 1.60258
head 2.8456 -5.02614 -0.00597676
lclavicle -2.70152e-14 -7.54666e-15 7.27994e-31
lhumerus -46.2495 -30.8652 111.285
lradius 55.5149 -0 0
lwrist 1.15166 0 0
lhand -5.60793 -4.07923 0.915465
lfingers 7.12502 -0 0
lthumb 20.1492 24.0765 0.70394
rclavicle -2.70152e-14 -7.54666e-15 7.27994e-31
rhumerus -47.3455 13.9118 -92.6063
rradius 73.3857 -0 0
rwrist 22.0678 0 0
rhand -17.9769 -22.8248 0.144296
rfingers 7.12502 -0 0
rthumb 8.28825 -52.5019 0.154135
483
root 4.79595 16.2839 -6.13873 -0.66976 75.1639 -12.8459
lfemur -42.0446 -3.80068 -16.6351
ltibia 52.3637 -0 0
lfoot -22.101 -6.73434 -0.155769
ltoes 14.074 -0 0
rfemur -34.9078 3.11553 10.8547
rtibia 59.743 -0 0
rfoot 5.50461 -3.48211 1.16867
rtoes -38.9361 0 0
lowerback 3.70401 -0.705362 2.10966
upperback -0.0998296 -0.798116 1.69704
thorax -2.12715 -0.404694 0.633229
lowerneck -8.40514 -7.74995 -0.409646
upperneck 4.19908 -10.3932 1.63164
head 2.92893 -5.12504 0.00792423
lclavicle -2.60913e-14 -7.6325e-15 6.73951e-31
lhumerus -46.4889 -31.0077 111.592
lradius 55.5629 -0 0
lwrist 1.27395 0 0
lhand -4.58258 -3.72016 0.882497
lfingers 7.12502 -0 0
lthumb 21.1354 24.3613 0.681787
rclavicle -2.60913e-14 -7.6325e-15 6.73951e-31
rhumerus -47.2604 14.7348 -92.938
rradius 73.7157 -0 0
rwrist 22.4666 0 0
rhand -17.5021 -22.671 0.142117
rfingers 7.12502 -0 0
rthumb 8.74659 -52.335 0.151345
484
root 4.86245 16.3119 -6.10969 -0.481545 76.1812 -12.2424
lfemur -40.9126 -5.06954 -17.1544
ltibia 51.7052 -0 0
lfoot -22.1795 -6.65638 -0.148942
ltoes 14.5577 -0 0
rfemur -36.6073 3.26231 10.8055
rtibia 61.5622 -0 0
rfoot 6.17021 -2.61928 1.11589
rtoes -37.137 0 0
lowerback 3.74415 -0.715711 1.82291
upperback -0.097124 -0.825553 1.61668
thorax -2.14971 -0.416247 0.711311
lowerneck -8.43887 -7.89936 -0.518874
upperneck 4.40545 -10.5884 1.65806
head 3.01358 -5.21889 0.0204546
lclavicle -2.5142e-14 -7.69456e-15 6.15516e-31
lhumerus -46.7309 -31.1385 111.887
lradius 55.6069 -0 0
lwrist 1.41605 0 0
lhand -3.55305 -3.34927 0.840582
lfingers 7.12502 -0 0
lthumb 22.1258 24.6586 0.652428
rclavicle -2.5142e-14 -7.69456e-15 6.15516e-31
rhumerus -47.1762 15.5702 -93.2743
rradius 74.0446 -0 0
rwrist 22.859 0 0
rhand -17.0208 -22.508 0.138238
rfingers 7.12502 -0 0
rthumb 9.21124 -52.1588 0.146786
485
root 4.91769 16.3387 -6.08791 -0.174855 77.0981 -11.511
lfemur -39.729 -6.33753 -17.7061
ltibia 51.029 -0 0
lfoot -22.2521 -6.55599 -0.140354
ltoes 15.0393 -0 0
rfemur -38.3481 3.37782 10.7651
rtibia 63.4453 -0 0
rfoot 6.8458 -1.73611 1.05043
rtoes -35.2269 0 0
lowerback 3.78795 -0.720425 1.52724
upperback -0.0920312 -0.84633 1.53033
thorax -2.17189 -0.424392 0.787737
lowerneck -8.47147 -8.04033 -0.621727
upperneck 4.61576 -10.7731 1.68178
head 3.09948 -5.30734 0.031555
lclavicle -2.41675e-14 -7.73177e-15 5.53199e-31
lhumerus -46.9749 -31.2569 112.17
lradius 55.6465 -0 0
lwrist 1.57859 0 0
lhand -2.5206 -2.96672 0.789313
lfingers 7.12502 -0 0
lthumb 23.1191 24.9682 0.615455
rclavicle -2.41675e-14 -7.73177e-15 5.53199e-31
rhumerus -47.0929 16.4175 -93.615
rradius 74.3718 -0 0
rwrist 23.2441 0 0
rhand -16.5332 -22.3355 0.132505
rfingers 7.12502 -0 0
rthumb 9.68185 -51.9731 0.140305
486
root 4.96084 16.3642 -6.07379 0.266923 77.9088 -10.6351
lfemur -38.4921 -7.60206 -18.2916
ltibia 50.3354 -0 0
lfoot -22.3184 -6.4324 -0.129921
ltoes 15.5181 -0 0
rfemur -40.1295 3.46113 10.7353
rtibia 65.3926 -0 0
rfoot 7.53073 -0.833038 0.971665
rtoes -33.2036 0 0
lowerback 3.83545 -0.719236 1.22266
upperback -0.0844732 -0.86014 1.43787
thorax -2.19363 -0.428981 0.862338
lowerneck -8.50294 -8.17233 -0.717822
upperneck 4.82991 -10.9465 1.70271
head 3.1866 -5.39006 0.0411674
lclavicle -2.31679e-14 -7.74308e-15 4.87583e-31
lhumerus -47.2206 -31.3625 112.439
lradius 55.6816 -0 0
lwrist 1.76221 0 0
lhand -1.48648 -2.57267 0.728301
lfingers 7.12502 -0 0
lthumb 24.1143 25.2903 0.570468
rclavicle -2.31679e-14 -7.74308e-15 4.87583e-31
rhumerus -47.0109 17.276 -93.9601
rradius 74.6968 -0 0
rwrist 23.6213 0 0
rhand -16.0399 -22.1534 0.124756
rfingers 7.12502 -0 0
rthumb 10.1581 -51.7779 0.131746
487
root 4.99108 16.3882 -6.06773 0.856462 78.6073 -9.60216
lfemur -37.2002 -8.86042 -18.9126
ltibia 49.6245 -0 0
lfoot -22.378 -6.28481 -0.117567
ltoes 15.9935 -0 0
rfemur -41.951 3.51142 10.7182
rtibia 67.4043 -0 0
rfoot 8.22431 0.0894754 0.879002
rtoes -31.065 0 0
lowerback 3.88672 -0.711875 0.909175
upperback -0.0743752 -0.866675 1.33915
thorax -2.21489 -0.429869 0.934948
lowerneck -8.53323 -8.29481 -0.806774
upperneck 5.04782 -11.108 1.7208
head 3.27487 -5.46671 0.0492358
lclavicle -2.21435e-14 -7.72741e-15 4.19318e-31
lhumerus -47.4674 -31.4547 112.693
lradius 55.712 -0 0
lwrist 1.96754 0 0
lhand -0.451976 -2.1673 0.657177
lfingers 7.12502 -0 0
lthumb 25.11 25.6246 0.517077
rclavicle -2.21435e-14 -7.72741e-15 4.19318e-31
rhumerus -46.9301 18.1452 -94.3093
rradius 75.0192 -0 0
rwrist 23.9896 0 0
rhand -15.5412 -21.9616 0.114829
rfingers 7.12502 -0 0
rthumb 10.6395 -51.573 0.120951
